<mxfile host="app.diagrams.net" modified="2024-03-09T07:44:49.323Z" agent="Mozilla/5.0 (Windows NT 10.0; Win64; x64) AppleWebKit/537.36 (KHTML, like Gecko) Chrome/122.0.0.0 Safari/537.36" version="24.0.2" etag="Kh93fGTnxVfPXCwgWKan" type="github">
  <diagram name="第 1 页" id="gjbRidGxQYb3s5MQRsTV">
    <mxGraphModel>
      <root>
        <mxCell id="0" />
        <mxCell id="1" parent="0" />
      </root>
    </mxGraphModel>
  </diagram>
</mxfile>
